<?xml version="1.0" encoding="UTF-8"?><svg id="Ebene_1" xmlns="http://www.w3.org/2000/svg" xmlns:xlink="http://www.w3.org/1999/xlink" viewBox="0 0 150.06 95.15"><defs><style>.cls-1{letter-spacing:-.01em;}.cls-2{letter-spacing:0em;}.cls-3{font-family:Roboto-Thin, Roboto;font-size:15.31px;font-weight:200;}.cls-3,.cls-4{fill:#fff;}.cls-5{fill:url(#Unbenannter_Verlauf_12);stroke:url(#Unbenannter_Verlauf_4);stroke-miterlimit:10;stroke-width:.5px;}.cls-6{isolation:isolate;}.cls-4{stroke-width:0px;}</style><linearGradient id="Unbenannter_Verlauf_12" x1="35.37" y1="73.97" x2="149.66" y2="73.97" gradientUnits="userSpaceOnUse"><stop offset="0" stop-color="#1d1d1b"/><stop offset="1" stop-color="#fff"/></linearGradient><linearGradient id="Unbenannter_Verlauf_4" x1="35.37" y1="73.97" x2="149.66" y2="73.97" gradientUnits="userSpaceOnUse"><stop offset="0" stop-color="#3c3c3b"/><stop offset="1" stop-color="#fff"/></linearGradient></defs><path class="cls-4" d="M67.6,22.43c-.78-.55-1.62-.83-2.45-.83-.97,0-1.92.38-2.72,1.13-1.01.96-1.42,2.17-1.45,3.71.04,1.55.6,2.94,1.83,4.06.84.76,1.83,1.12,2.79,1.12,1.35,0,2.65-.7,3.47-2.06.49-.8.72-1.73.72-2.67,0-1.72-.79-3.47-2.19-4.47h0ZM69.29,26.9h0c-.02,1.33-.45,2.57-1.54,3.46-.62.51-1.37.77-2.13.77-.65,0-1.31-.19-1.89-.56-1.44-.91-2.24-2.58-2.24-4.22,0-.9.24-1.81.75-2.59.7-1.07,1.8-1.64,2.94-1.64.83,0,1.67.31,2.38.92,1.18,1.01,1.71,2.35,1.74,3.86h0Z"/><path class="cls-4" d="M55.49,21.9c.95-.19,1.76-.55,2.41-1.21.7-.72,1.05-1.6,1.05-2.53,0-.67-.19-1.37-.58-2.06-.66-1.13-1.49-1.93-2.49-2.47-.99-.55-2.14-.84-3.42-.92-.74,0-1.44.12-2.11.39-.2.09-.23.18-.24.26l.02.09c.05.1.09.14.21.15l.17-.03c.61-.24,1.25-.35,1.88-.35.41,0,.82.04,1.23.13,1.7.35,3.15,1.21,4.13,2.7.4.61.67,1.31.67,2.08,0,.1,0,.2-.02.32-.07.69-.31,1.28-.71,1.74-.39.46-.92.79-1.54,1.01-.64.22-1.27.33-1.89.33-1.13,0-2.21-.35-3.21-.95-.77-.46-1.44-1.01-1.93-1.69-.49-.68-.78-1.51-.78-2.47,0-.14,0-.28.02-.42v-.02l-.05-.13-.16-.08h-.03c-.09,0-.19.06-.23.2-.02.06-.03.13-.03.21-.02.14-.02.26-.02.4,0,.78.23,1.51.65,2.22,1.13,1.94,3.56,3.24,5.85,3.23.38,0,.74-.03,1.11-.1l.03-.04Z"/><path class="cls-4" d="M42.51,25.9c1.39,0,2.59-.55,3.68-1.48.79-.67,1.37-1.47,1.6-2.47.05-.22.08-.44.08-.65,0-.5-.15-.95-.41-1.31-.26-.37-.66-.66-1.18-.83-.31-.1-.65-.14-.9-.18-1.53.04-2.66.53-3.71,1.37-.78.63-1.38,1.37-1.68,2.32-.1.32-.16.65-.16.95,0,.38.09.75.31,1.12.24.4.53.67.89.85.35.19.77.28,1.23.31h.26ZM40.73,24.71c-.26-.31-.39-.7-.39-1.12,0-.19.03-.38.08-.58.22-.85.73-1.54,1.35-2.08.85-.76,1.86-1.29,3.04-1.41.13-.02.26-.02.38-.02.25,0,.49.03.74.08.47.1.84.32,1.09.63.26.31.37.69.37,1.08,0,.28-.05.56-.15.84-.32.91-.93,1.6-1.65,2.14-.92.7-2.05,1.12-3.05,1.14h-.06c-.2-.03-.42-.04-.67-.1-.44-.09-.81-.31-1.07-.61h0Z"/><path class="cls-4" d="M65.91,11.36c.16-.4.25-.78.25-1.13,0-.55-.19-1.05-.64-1.54-.38-.41-.86-.66-1.43-.8-.34-.09-.7-.13-1.07-.13-1.71,0-3.59.92-4.56,2.33-.38.55-.6,1.13-.61,1.76v.14c0,.15.05.24.09.29.04.04.08.07.16.07h0c.09,0,.12-.03.15-.07.03-.04.08-.13.08-.28h0v-.05c0-.55.16-1.08.48-1.52,1.01-1.42,2.48-2.07,4.14-2.16h.03c.55,0,1.13.09,1.65.38.3.17.55.38.72.66.18.27.26.6.26.94,0,.09,0,.16-.02.25-.1.9-.62,1.6-1.26,2.1-.97.78-2.07,1.27-3.28,1.27-.45,0-.91-.07-1.39-.2l-.09-.02c-.12,0-.19.06-.22.15l-.02.09c0,.09.03.15.18.22.2.09.4.15.61.18.31.06.61.09.91.09,1.05,0,2.04-.33,2.99-.91.84-.51,1.49-1.19,1.87-2.08h0Z"/><path class="cls-4" d="M54.12,30.38h.02c1.22,0,2.25-.46,3.16-1.29.91-.84,1.45-1.8,1.52-3.23-.04-.23-.09-.55-.19-.85-.04-.13-.12-.17-.22-.17l-.14.04-.07.07s-.03.08-.03.16l.02.16c.03.26.09.54.09.84,0,.14,0,.28-.04.43-.18.92-.72,1.73-1.43,2.33s-1.61.98-2.55,1.02h-.12c-.7,0-1.31-.22-1.74-.64-.44-.41-.67-1.01-.67-1.66,0-.22.03-.45.09-.69.2-.87.76-1.66,1.48-2.24.73-.58,1.63-.96,2.58-.96.2,0,.4.02.61.05h.08c.09,0,.14-.02.18-.05l.08-.15v-.05l-.05-.15s-.09-.08-.2-.1c-.25-.04-.49-.08-.71-.08h-.08c-1.9.07-3.73,1.42-4.37,3.23-.15.4-.2.78-.2,1.15,0,.78.3,1.48.8,1.98s1.23.82,2.11.82h0l.02.02Z"/><path class="cls-4" d="M46.4,28.51c-.42-.13-.83-.19-1.23-.19-1.82,0-3.35,1.93-3.71,3.84v.09c0,.16.05.22.16.26h.08l.12-.03s.09-.09.12-.19l.04-.86h0c.2-.78.6-1.44,1.15-1.89s1.26-.7,2.02-.7c.29,0,.6.03.9.11,1.42.33,2.52,1.19,3.3,2.35.67.99,1.09,2.06,1.09,3.2,0,.58-.11,1.5-.34,2.11l-.03.16v.03c0,.1.08.18.2.2h.04l.11-.03s.09-.08.13-.17c.28-.59.38-1.54.38-2.23v-.02c0-.63-.09-1.25-.31-1.83-.77-2.11-2.09-3.56-4.23-4.22v.03Z"/><path class="cls-4" d="M47.34,7.36c0,.09,0,.17,0,.26,0,1.29.96,2.25,2.23,2.25h.15c.81-.05,1.6-.46,2.18-1.08s.95-1.42.95-2.23h0v-.02c0-.68-.24-1.25-.63-1.65s-.94-.63-1.58-.63c-.13,0-.26,0-.4.03-1.48.21-2.75,1.56-2.88,3.05h0ZM50.35,4.79c.09-.02.19-.02.28-.02.48,0,.91.18,1.23.49.31.32.49.77.49,1.26h0c0,.73-.33,1.41-.82,1.91-.49.51-1.14.87-1.87.91h-.11c-.48,0-.92-.17-1.23-.49-.31-.32-.49-.75-.49-1.24v-.12c.09-1.36,1.16-2.52,2.51-2.71h0Z"/><path class="cls-4" d="M67.09,15.54h0c0,.7.22,1.53.57,2.06.86,1.34,2.22,2.09,3.95,2.52.28.07.61.09.95.09h.27l.06-.03.06-.15v-.02c0-.11-.05-.17-.19-.22-.07-.02-.16-.03-.25-.04-1.4-.1-2.55-.66-3.51-1.43-.5-.4-.87-.9-1.07-1.47-.16-.44-.23-.89-.23-1.33,0-.6-.04-1.28.22-1.86.43-1.4,1.33-2.66,2.64-3.78l.1-.16-.05-.1-.14-.06-.15.04c-.15.09-.29.2-.44.32-.92.83-1.22,1.4-1.86,2.4-.58.91-.91,2.2-.92,3.22h-.01Z"/><path class="cls-4" d="M62.8,6.32c.25-.03.54-.03.8-.08,1.09-.17,2.03-.59,2.82-1.34.13-.12.15-.22.15-.27l-.07-.15-.15-.07c-.06,0-.16.03-.28.14-.18.15-.38.33-.61.48-.81.53-1.79.79-2.77.79-1.03,0-2.07-.29-2.92-.89-.48-.34-.89-.73-1.18-1.21-.29-.47-.45-1.02-.45-1.63,0-.15,0-.29.03-.44.04-.36.18-.66.26-.9l.02-.12c0-.11-.04-.17-.13-.21l-.1-.03c-.08,0-.15.03-.22.15-.05.08-.09.18-.13.28-.17.47-.25.9-.25,1.32,0,.9.35,1.71,1.04,2.49,1.07,1.19,2.44,1.66,4.13,1.71v-.02Z"/><path class="cls-4" d="M54.13,19.39c.2-.03.38-.03.53-.07.93-.18,1.54-.93,1.54-1.78,0-.15-.02-.3-.06-.44-.15-.61-.55-1.16-1.08-1.55-.53-.39-1.19-.62-1.83-.62-.26,0-.51.03-.76.11-.83.26-1.3.92-1.3,1.7,0,.2.03.4.09.61.35,1.13,1.6,2.02,2.88,2.04h0ZM51.64,16.75c0-.33.13-.65.37-.88.23-.23.55-.38.92-.43.09-.02.2-.02.29-.02.48,0,.96.15,1.36.4.41.26.75.61.96,1.04.1.23.16.46.16.69,0,.32-.11.61-.32.84s-.5.38-.84.44c-.14.03-.26.03-.34.04h-.08c-.92-.07-1.74-.48-2.22-1.32-.15-.26-.24-.55-.24-.82h0Z"/><path class="cls-4" d="M45.55,30.8c-.15,0-.28.02-.4.03-.48.05-.84.24-1.08.49s-.38.57-.38.95c0,.28.08.59.26.91.26.44.7.86,1.23,1.15s1.13.47,1.68.46c.12,0,.24,0,.35-.03.5-.08.88-.27,1.12-.53.25-.26.38-.57.38-.93s-.14-.76-.45-1.16c-.69-.87-1.59-1.28-2.7-1.36h0ZM47.93,33.94c-.17.16-.39.25-.64.3-.14.03-.28.04-.42.04-.49,0-.98-.15-1.42-.38-.44-.24-.84-.57-1.07-.99-.11-.2-.18-.42-.18-.63,0-.23.09-.47.27-.63.17-.16.39-.26.63-.31.18-.03.32-.03.43-.04h.06c.88.06,1.67.41,2.26,1.12h0v.03l.14.18h0c.13.23.21.45.21.69s-.1.48-.28.63h0Z"/><path class="cls-4" d="M64.92,19.86c.19,0,.31,0,.38-.02.29-.04.54-.11.73-.22s.32-.25.44-.49c.07-.15.09-.3.09-.44,0-.28-.12-.55-.36-.84-.84-.96-1.83-1.42-3.04-1.42-.14,0-.28,0-.44.02-.34.03-.61.14-.78.29-.18.15-.3.34-.35.59-.02.09-.03.16-.03.24,0,.32.15.62.42.92.8.89,1.8,1.29,2.94,1.37h0ZM63,16.94h.18c.93.05,1.8.38,2.48,1.08.12.12.18.25.22.35.04.1.08.2.11.26l.02.03c0,.18-.08.38-.39.56-.03.02-.05.03-.09.03-.11.04-.25.09-.42.1h-.1c-.96,0-1.82-.36-2.5-1.02-.09-.09-.14-.17-.19-.26h0s-.03-.06-.05-.09c0,0-.02-.03-.02-.03-.04-.09-.08-.18-.1-.24,0-.03-.02-.07-.02-.1,0-.22.17-.38.38-.49.08-.04.14-.06.2-.09l.23-.08.05-.02h0Z"/><path class="cls-4" d="M36.39,14.33c.2.03.91.04,1.11.04.85,0,1.63-.26,2.34-.8,1.27-.98,1.77-2.3,1.81-3.76,0-.87-.13-1.55-.39-2.22-.15-.38-.33-.75-.55-1.08-.06-.09-.12-.11-.19-.11s-.15.03-.2.12l-.04.12c0,.05.03.13.09.24.5.84.78,1.77.78,2.75,0,.15,0,.29-.02.44-.1,1.31-.65,2.49-1.82,3.26-.57.38-1.2.54-1.84.54-.17,0-.84,0-1.01-.03h-.08c-.11,0-.17.03-.21.06-.03.03-.07.08-.08.15v.03l.06.14s.13.09.26.11h0Z"/><path class="cls-4" d="M58,33.46c-.15,0-.33.02-.49.04-.96.18-1.71.55-2.33,1.11s-1.11,1.55-1.48,2.45l-.03.15v.03c0,.1.09.18.2.2h.03c.09,0,.15-.03.24-.19.19-.37.38-1.05.65-1.44.61-.9,1.48-1.57,2.6-1.78.24-.04.48-.07.71-.07.96,0,1.82.41,2.52,1.11.11.1.2.13.25.13l.16-.08.06-.15c0-.06-.03-.15-.13-.26-.81-.83-1.75-1.24-2.98-1.26h0Z"/><path class="cls-4" d="M53.5,10.29c0,.38.13.67.33.87.2.2.48.32.83.33.13-.02.23-.02.31-.03.51-.1,1.02-.44,1.39-.88s.62-1,.65-1.52v-.08c0-.61-.37-1.08-.85-1.18h-.09c-.14,0-.19.03-.24.15l-.02.09c0,.09.03.14.16.2.15.06.31.16.4.32.09.15.13.32.12.45v.12c-.05.43-.26.82-.54,1.14-.28.32-.64.59-1.06.68-.07.02-.15.03-.23.03-.17,0-.38-.07-.51-.23s-.15-.34-.15-.51v-.02h0c0-.49.24-.84.42-1.12.09-.13.14-.28.14-.36h0l-.03-.08-.12-.08-.1-.02-.16.09c-.43.48-.66,1-.67,1.6h0l.03.02Z"/><path class="cls-4" d="M51.61,2.62c.42.53.87.92,1.47,1.08.1.03.2.03.28.03.22,0,.4-.07.53-.19s.22-.29.25-.55c0-.08,0-.15,0-.23,0-.76-.36-1.4-.93-2.01l-.09-.03-.15.06-.09.19.03.1c.05.1.16.24.27.43.2.34.47.76.47,1.34h0v.53l-.49-.17c-.06-.03-.1-.02-.23-.09-.84-.49-1.39-1.26-1.61-2.19h0l-.02-.17c0-.18.05-.32.11-.45.04-.09.06-.03.06-.09,0-.09-.02-.11-.1-.17l-.12-.03c-.07,0-.17.03-.26.15-.14.18-.2.24-.2.49v.1c.05.71.37,1.31.83,1.89h0Z"/><path class="cls-4" d="M51.55,23.77l.03-.12c0-.09-.04-.15-.14-.2l-.1-.03c-.07,0-.15.03-.23.15-.03.04-.06.11-.12.21-.24.39-.57.77-1.08.95-.17.06-.32.06-.44.06h-.22s-.16-.03-.32-.12c-.05-.03-.11-.3-.11-.3,0-.06,0-.14,0-.23,0-.11.03-.24.09-.39.23-.63.73-1.03,1.26-1.3.14-.08.16-.15.17-.22l-.03-.1c-.04-.09-.11-.14-.21-.14l-.12.03c-.2.09-.41.2-.58.32-.67.5-1.06,1.11-1.11,1.78v.03c0,.33.08.58.19.76.12.18.28.31.49.39.15.05.28.08.42.08.2,0,.39-.04.61-.13.73-.29,1.22-.77,1.54-1.47h0Z"/><path class="cls-4" d="M69.56,13.29c-.32.61-.51,1.22-.51,1.83,0,.23.03.46.09.69.17.69.6,1.24,1.15,1.76.2.2.41.38.61.55l.19.07.17-.09.06-.14c0-.06-.03-.13-.1-.21-.06-.06-.16-.15-.27-.26-.28-.29-.61-.58-.9-.95-.34-.44-.51-.95-.51-1.48,0-.16.02-.32.04-.48.15-.84.51-1.59,1.08-2.22.03-.03.09-.13.15-.23l-.03-.06-.09-.07-.08-.02s-.08,0-.16.08c-.38.32-.65.73-.89,1.21h0Z"/><path class="cls-4" d="M44.11,10.29c-.17,0-.38-.06-.51-.21s-.18-.34-.17-.51v-.15c.06-.44.26-.84.56-1.14.11-.12.14-.2.14-.25l-.07-.15-.16-.08c-.06,0-.15.03-.25.13-.46.45-.7,1.01-.71,1.43,0,.49.14.85.33,1.08s.45.35.78.35c.15,0,.32-.03.49-.09.43-.15.71-.37.93-.67.21-.29.36-.67.44-1.11.03-.14.03-.26.03-.38,0-.25-.05-.45-.19-.66-.09-.13-.15-.15-.2-.15l-.09.03-.08.12.04.17c.07.17.1.35.1.52,0,.35-.11.7-.3,1-.19.29-.46.55-.81.66-.1.03-.2.05-.32.05h0Z"/><path class="cls-4" d="M45.37,13.95c-.14-.03-.26-.04-.38-.04-.38,0-.67.13-.96.44-.21.24-.29.48-.3.74,0,.15.03.31.09.48.23.65.86,1.08,1.55,1.08.77,0,1.31-.56,1.31-1.19,0-.11-.02-.22-.05-.33-.1-.33-.26-.59-.46-.78-.2-.19-.46-.32-.8-.4h0ZM45.93,15.96c-.15.13-.35.2-.55.19h0c-.24,0-.46-.09-.65-.2-.19-.13-.34-.31-.43-.53-.03-.09-.05-.2-.05-.29,0-.18.07-.36.2-.49.13-.13.3-.2.48-.21h.1c.43,0,.82.22,1.03.61.07.12.1.26.1.4,0,.2-.09.4-.24.54h0Z"/><path class="cls-4" d="M39.95,26.86c-.62-.41-1.31-.56-2.06-.56-.18,0-.37,0-.55.03-.17.02-.23.12-.24.23v.02l.08.16c.05.04.12.08.24.09h.44c.71,0,1.3.13,1.74.41.38.23.66.62.65,1.08,0,.15-.03.32-.09.47-.14.38-.34.72-.53,1.02-.07.11-.09.2-.09.26l.09.16.15.06c.07,0,.13-.03.2-.14.26-.38.49-.76.62-1.13.09-.25.13-.49.13-.71,0-.59-.27-1.09-.8-1.44h.02Z"/><path class="cls-4" d="M54.75,31.88c-.09-.05-.22-.1-.36-.25-.2-.21-.38-.26-.67-.27-.12,0-.25.02-.38.03-.61.1-1.04.58-1.1,1.13.07.22.12.42.19.54.25.44.76.71,1.3.71.38,0,.76-.13,1.03-.39.24-.22.35-.5.35-.78,0-.22-.08-.44-.23-.64l-.03-.02-.1-.06h0ZM54.59,32.64c-.02.13-.09.21-.14.27l-.15.13c-.09.06-.17.11-.21.14l-.08.06h-.09l-.13.03h-.04c-.17,0-.33-.03-.48-.09-.15-.06-.27-.15-.38-.28-.07-.09-.12-.21-.12-.35v-.03c0-.12.06-.23.12-.32.07-.09.15-.15.23-.2.16-.09.35-.13.55-.13h.12l.13.02h0c.15.02.31.06.44.17s.24.3.23.49v.1-.02Z"/><path class="cls-4" d="M62.92,4.44h0c.37,0,.88-.15,1.32-.48.1-.09.12-.13.13-.2v-.09l-.08-.13-.09-.03h0c-.07,0-.21.04-.32.11-.35.2-.73.32-1.11.32s-.72-.09-1.05-.28c-.36-.19-.65-.45-.84-.78-.2-.32-.3-.71-.31-1.12,0-.12,0-.21-.02-.27-.03-.11-.09-.17-.21-.19h-.02c-.1,0-.19.06-.21.14-.03.09-.04.19-.05.29v.05c0,.7.31,1.36.82,1.84s1.23.79,2.05.79v.03Z"/><path class="cls-4" d="M72.33,21.41v-.03l-.06-.09s-.1-.05-.2-.05h0c-.36,0-.77.16-1.1.44-.33.26-.57.63-.66,1-.05.23-.08.45-.08.67,0,.67.21,1.31.55,1.95.14.26.18.42.38.66l.18.09.15-.05.09-.18-.04-.15c-.05-.09-.11-.18-.19-.28-.42-.56-.51-1.12-.62-1.77-.03-.15-.04-.3-.04-.44,0-.34.09-.66.28-.92.2-.26.48-.44.8-.55.15-.05.26-.07.34-.09.1-.03.15-.06.17-.09l.03-.09h0Z"/><path class="cls-4" d="M58.18,30c0,.38.1.67.26.9s.4.4.7.5c.13.04.26.06.39.06.33,0,.66-.13.9-.34.25-.21.4-.5.42-.83v-.03c0-.09-.03-.15-.04-.18l-.12-.08h-.06c-.08,0-.14.02-.21.15-.03.07-.07.17-.14.31-.07.14-.16.26-.29.37s-.29.16-.45.16c-.15,0-.27-.03-.39-.09-.3-.13-.55-.43-.54-.78,0-.15.04-.31.12-.44.15-.26.35-.44.55-.59.13-.09.15-.18.15-.21l-.02-.06c-.03-.07-.09-.1-.17-.1l-.16.04c-.58.32-.85.78-.9,1.25h0Z"/><path class="cls-4" d="M37.93,16.99c0-.28-.15-.65-.38-.96-.23-.31-.55-.55-.83-.63h-.08c-.09,0-.16.03-.21.11l-.03.12.08.17c.07.07.2.15.37.26.33.24.56.57.56.96s-.25.73-.6.95c-.33.21-.7.33-1.02.44-.12.04-.2.09-.24.15l-.05.13v.05l.09.15s.09.05.17.05l.12-.02c.48-.11.9-.29,1.28-.58.48-.37.73-.77.75-1.34h.03Z"/><path class="cls-4" d="M41.22,16.54c.14-.08.26-.09.34-.09h.17c.23.03.45.09.67.2.21.11.42.27.56.5.07.09.11.1.15.1l.09-.03.09-.14-.03-.09c-.09-.18-.21-.35-.34-.46-.38-.32-.8-.49-1.36-.51-.2,0-.38.03-.53.1-.15.07-.28.16-.39.33-.15.22-.21.43-.21.63,0,.18.05.37.15.57.12.21.26.35.44.44.18.09.41.15.67.16h0l.11-.05.09-.16v-.03c0-.08-.04-.16-.16-.21-.05-.03-.15-.04-.26-.08-.11-.03-.23-.08-.35-.18s-.21-.28-.2-.46l.02-.17c.03-.15.13-.31.26-.38h0Z"/><path class="cls-4" d="M63.34,31.93c-.12-.03-.23-.04-.34-.04-.68,0-1.19.48-1.19,1.13,0,.22.15.56.38.83s.55.45.78.48h.06c.09,0,.15-.02.19-.05l.09-.15v-.05l-.04-.12s-.1-.09-.2-.14c-.2-.08-.39-.2-.55-.36-.08-.09-.12-.16-.15-.24-.03-.09-.05-.17-.06-.27,0-.06,0-.13.04-.22.07-.14.15-.2.24-.28.09-.06.19-.13.38-.14h.07c.28.04.58.12.85.25.09.04.16.06.2.06l.11-.05.04-.12-.07-.12c-.27-.18-.57-.34-.84-.4h.02Z"/><path class="cls-4" d="M67.3,8.69c.23.2.54.32.9.36.25-.08.48-.14.63-.22.08-.04.11-.1.11-.19l-.03-.11c-.04-.09-.1-.13-.22-.13l-.1.02-.14.05h0c-.1.03-.2.05-.31.05-.18,0-.36-.05-.51-.15s-.26-.25-.34-.42c-.07-.15-.11-.32-.11-.49,0-.47.32-.89.78-1.05.09-.03.12-.07.14-.09l.03-.08v-.04c-.03-.08-.07-.13-.2-.14h-.03c-.09,0-.19.03-.26.06-.52.2-.88.76-.88,1.39,0,.1,0,.21.03.32.07.37.25.66.49.87l.03-.02Z"/><path class="cls-4" d="M58.53,7.3c.13,0,.2-.08.21-.23h0c0-.09-.02-.11-.05-.15s-.11-.09-.26-.14c-.81-.23-1.6-.59-2.24-1.21-.26-.26-.49-.53-.72-.78-.08-.09-.14-.1-.18-.1l-.08.02-.09.15v.07c.03.08.09.18.16.27.67.87,1.5,1.5,2.53,1.9.23.09.45.16.66.2h.05Z"/><path class="cls-4" d="M58.61,35.26c-.2-.04-.43-.06-.61-.09-.28,0-.53.03-.73.1-.21.07-.38.16-.54.31-.35.33-.52.69-.52,1.13,0,.08,0,.16.02.25.03.15.1.19.2.2h.03l.1-.05.04-.15h0v-.09c0-.33.09-.66.32-.89.23-.23.55-.32.9-.32h.06c.26,0,.48.05.67.07h.05c.1,0,.16-.03.2-.05l.07-.12v-.06l-.03-.13s-.09-.07-.19-.09h0Z"/><path class="cls-4" d="M44.1,5.66c.2-.04.38-.07.5-.11.1-.03.15-.11.15-.2v-.07c-.04-.09-.12-.15-.25-.16h-.04c-.06,0-.14.03-.24.04h-.11c-.2,0-.39-.06-.54-.2-.15-.14-.23-.33-.24-.54v-.04c0-.18.06-.36.16-.49s.22-.21.34-.28c.1-.06.1-.09.11-.15v-.06c-.03-.07-.08-.11-.18-.11h-.03c-.08,0-.17.04-.25.09-.33.18-.57.62-.57,1.04,0,.09,0,.19.03.28.15.57.61.93,1.14.96h0Z"/><path class="cls-4" d="M60.97,11.9l.09-.03.09-.13c.13-.35.29-.64.55-.84.26-.2.58-.3.92-.3.13,0,.26,0,.39.03h.04c.1,0,.2-.07.21-.1l.03-.09-.06-.12c-.12-.09-.31-.15-.51-.24h0c-.15.03-.28.04-.38.06-.38.09-.74.29-1.02.56s-.46.61-.51.92v.05c0,.13.07.2.12.21h.06,0Z"/><path class="cls-4" d="M36.35,24.27c-.05.08-.06.15-.06.2l.06.14.12.04c.05,0,.12-.02.2-.11.31-.32.48-.67.5-1.1v-.03c0-.26-.12-.55-.32-.78-.2-.23-.46-.38-.7-.4h-.07c-.1,0-.17.03-.2.05l-.06.09v.05l.02.07s.09.07.23.1c.18.04.35.14.47.27.13.14.2.32.2.51,0,.15-.04.29-.1.42-.1.2-.22.34-.29.45v.02Z"/><path class="cls-4" d="M54.96,1.57c.12.13.24.24.35.31s.2.09.3.09h0c.16,0,.27-.03.36-.07s.15-.09.22-.18l.05-.15-.03-.1-.15-.09h-.04c-.1.05-.21.09-.33.09-.15,0-.29-.05-.39-.14-.1-.08-.17-.17-.22-.26-.17-.3-.31-.6-.45-.88-.07-.12-.13-.14-.18-.15h-.06c-.09.04-.1.08-.11.17v.08c.15.49.35.92.67,1.27h0Z"/><path class="cls-4" d="M42.02,6.33c.23.26.49.41.82.46h.04l.13-.04s.06-.09.06-.19l-.04-.08s-.11-.09-.21-.13c-.43-.16-.72-.49-.86-.87-.1-.26-.15-.49-.21-.69-.03-.1-.09-.13-.16-.14l-.16.12-.03.17v.03c.09.52.28.97.62,1.36h0Z"/><path class="cls-4" d="M47.48,1.63l.11-.03c.09-.03.2-.09.34-.16.32-.16.67-.26,1.02-.26.2,0,.39.03.59.09h.09l.1-.03.04-.09v-.04c0-.09-.02-.11-.09-.15-.21-.09-.49-.14-.79-.2-.55.03-1.03.2-1.51.49-.09.05-.11.12-.11.19l.03.1c.04.07.09.1.18.1h0Z"/><path class="cls-4" d="M38.36,10.09l.09.02c.1,0,.16-.03.2-.15.2-.55.38-1.1.53-1.66v-.08l-.05-.15s-.1-.07-.2-.07l-.13.04-.09.13c-.18.55-.36,1.08-.5,1.63v.09c0,.11.04.18.15.21h0Z"/><path class="cls-4" d="M48.14,3.97c.21-.26.47-.47.71-.66.12-.09.24-.15.33-.2.09-.04.15-.08.19-.11.05-.04.12-.14.2-.25-.05-.12-.15-.17-.21-.17l-.11.03c-.38.2-.73.43-1.06.68-.14.1-.27.32-.39.54l-.03.12.09.15.07.02s.13-.03.24-.17v.02Z"/><path class="cls-4" d="M45.93,4.02l.14-.06.07-.14-.05-.15c-.07-.1-.12-.19-.16-.27s-.09-.2-.09-.33c0-.15.06-.28.12-.37.06-.09.13-.17.21-.26l.06-.12-.03-.09c-.05-.09-.08-.09-.09-.09h-.03c-.13.04-.27.13-.35.21-.2.21-.29.48-.3.81v.03c0,.29.13.51.37.76l.15.07h0Z"/><path class="cls-4" d="M61.31,21.11l.09-.15-.06-.14-.14-.07-.15.04c-.11.05-.23.09-.36.09-.14,0-.27-.04-.38-.1s-.18-.14-.24-.21c-.1-.13-.15-.22-.16-.24-.06-.09-.12-.1-.16-.1l-.07.02c-.05.03-.09.07-.09.16v.07c.05.2.2.41.43.58.2.15.46.26.7.29.23-.09.44-.15.57-.24h0Z"/><path class="cls-4" d="M50.14,27.79v-.18s-.12-.09-.12-.09h-.15s-.1.12-.1.12c-.07.1-.16.19-.27.25-.12.07-.26.1-.38.1s-.22-.03-.31-.07c-.15-.06-.24-.12-.26-.13-.09-.04-.15-.03-.19,0l-.05.05s-.04.1,0,.18l.03.06c.14.14.38.25.66.29.25.03.53,0,.75-.1.16-.19.31-.35.38-.49h0Z"/><path class="cls-4" d="M53.33,34.83l-.1-.05c-.32.02-.61.14-.81.33-.21.2-.33.47-.33.73v.07c0,.09.04.15.07.18l.12.05h.02l.12-.04s.06-.08.08-.18c.02-.11.03-.2.07-.31.03-.1.12-.23.23-.31l.22-.1c.09-.03.19-.03.28-.04l.12-.03.05-.07.03-.09-.02-.03-.16-.1h.03Z"/><path class="cls-4" d="M42.88,13.07l-.1-.05c-.32.02-.61.14-.81.33-.21.2-.33.47-.33.73v.07c0,.09.04.15.07.18l.12.05h.02l.12-.04s.06-.08.08-.18c.02-.11.03-.2.07-.31.03-.1.12-.23.23-.31l.22-.1c.09-.03.19-.03.28-.04l.12-.03.05-.07.03-.09-.02-.03-.16-.1h.03Z"/><path class="cls-4" d="M59.29,22.82h.02c.19,0,.31-.04.36-.09l.07-.13v-.02l-.04-.11s-.14-.08-.3-.08c-.19,0-.38-.06-.53-.17-.15-.11-.26-.25-.33-.4-.07-.12-.12-.14-.16-.14l-.09.03c-.06.03-.09.09-.09.18l.04.15c.26.49.61.72,1.08.77h-.02Z"/><path class="cls-4" d="M48.78,12.53c.15-.09.26-.2.38-.38l.04-.13-.07-.14-.09-.03-.15.09c-.07.07-.14.14-.23.2s-.22.09-.35.09c-.15,0-.28-.05-.4-.11l-.08-.02-.15.1-.03.1.09.15c.15.09.34.15.5.22.23-.03.41-.08.55-.15h-.02Z"/><path class="cls-4" d="M56.71,31.2h0c-.1,0-.2.04-.29.12-.08.08-.12.18-.12.28,0,.23.19.42.39.42h0c.11,0,.25-.05.34-.15.1-.09.15-.22.15-.32h0c0-.09-.03-.16-.1-.23-.08-.06-.2-.12-.38-.13h0Z"/><path class="cls-4" d="M46.69,25.51c-.19.12-.36.3-.4.39l-.02.03c0,.12.09.19.16.19l.08-.02c.26-.15.51-.33.73-.54l.04-.1-.11-.15h-.02c-.07,0-.29.07-.48.2h.02Z"/><path class="cls-4" d="M67.99,20.25l-.1.04-.07.12v.04h0v.03l.06.09c.04.07.12.15.2.21.15.15.36.26.41.26h.03l.09-.02.06-.07.03-.1-.05-.1c-.18-.17-.38-.33-.6-.48l-.06-.03h0Z"/><path class="cls-4" d="M44.26,26.74c-.18.03-.34.05-.45.09-.09.03-.15.07-.16.09l-.03.09v.04l.06.09s.09.05.18.05h.03c.2,0,.39-.03.58-.05l.11-.04.04-.09v-.04l-.02-.07-.08-.06s-.14-.04-.25-.08l-.02-.02Z"/><path class="cls-4" d="M46.07,5.8c-.2.1-.38.23-.55.37l-.05.09.03.09.05.07.13.03c.17-.03.38-.19.59-.41l.03-.08-.03-.1-.14-.08-.06.02h0Z"/><path class="cls-4" d="M37.54,11.73c.09,0,.19-.04.26-.1l.09-.15c0-.1-.07-.17-.18-.17h0c-.1,0-.2.04-.26.1l-.09.16h0l.04.12.14.05h0Z"/><path class="cls-4" d="M60.18,35.99h-.02c-.13,0-.21.03-.26.07l-.06.12h0l.05.11s.1.06.21.06h0c.15,0,.22-.03.26-.06l.05-.12h0l-.05-.12s-.09-.06-.19-.06h0Z"/><path class="cls-4" d="M44.77,12.09c.1,0,.15-.06.16-.16,0-.09-.07-.16-.16-.16h0l-.12.05-.05.11h0c0,.09.08.16.17.16h0Z"/><path class="cls-4" d="M62.11,35.54c-.08,0-.16.08-.16.16h0c0,.11.06.16.15.17h0c.09,0,.16-.08.16-.16l-.05-.12-.11-.05h0Z"/><path class="cls-4" d="M72.3,23.34l-.12.04-.04.12c0,.09.07.15.15.16h0c.08,0,.16-.08.16-.16h0c0-.09-.07-.16-.16-.16h0Z"/><path class="cls-4" d="M67.28,24.81l-.14.05-.09.18.05.17s.08.1.14.19c.27.4.4.87.4,1.34,0,.58-.19,1.16-.59,1.6-.34.37-.78.57-1.23.57-.52,0-1.02-.27-1.34-.75-.27-.39-.39-.86-.39-1.32s.12-.91.36-1.3c.23-.38.6-.7,1.06-.84l.09-.06.09-.16-.02-.09-.08-.12-.12-.03c-.07,0-.17.02-.26.06-.95.36-1.6,1.36-1.6,2.53,0,.55.14,1.04.41,1.5.44.73,1.13,1.08,1.83,1.08.55,0,1.09-.21,1.54-.69.54-.57.78-1.19.78-1.93,0-.2-.02-.4-.05-.61-.09-.49-.28-.92-.61-1.28l-.2-.09h-.02Z"/><path class="cls-4" d="M37.61,19.56c.05-.07.11-.14.19-.21.45-.42,1-.74,1.68-.8.09,0,.12-.03.15-.06l.03-.11h0l-.04-.11s-.07-.05-.15-.06h-.09c-1.02.11-1.78.56-2.35,1.42-.11.16-.16.32-.16.49,0,.09.02.17.04.26.12.35.46.6.89.6.08,0,.16,0,.25-.03.51-.11,1.02-.31,1.54-.52.14-.06.17-.14.17-.23l-.03-.12c-.05-.09-.09-.11-.2-.12-.05,0-.12,0-.2.05-.25.1-.5.23-.79.32-.26.09-.49.1-.67.15l-.09.02c-.1-.02-.19-.05-.23-.09-.06-.06-.09-.15-.09-.26,0-.15.05-.35.11-.49.02-.03.03-.06.04-.09h0Z"/><path class="cls-4" d="M54.72,27.9c-.17,0-.38-.06-.51-.21s-.18-.34-.17-.51v-.15c.06-.44.26-.84.56-1.14.11-.12.14-.2.14-.25l-.07-.15-.16-.08c-.06,0-.15.03-.25.13-.46.45-.7,1.01-.71,1.43,0,.49.14.85.33,1.08s.45.35.78.35c.15,0,.32-.03.49-.09.43-.15.71-.37.93-.67.21-.29.36-.67.44-1.11.03-.14.03-.26.03-.38,0-.25-.05-.45-.19-.66-.09-.13-.15-.15-.2-.15l-.09.03-.08.12.04.17c.07.17.1.35.1.52,0,.35-.11.7-.3,1-.19.29-.46.55-.81.66-.1.03-.2.05-.32.05h0Z"/><g class="cls-6"><path class="cls-4" d="M13.8,61.47c0,1.62.48,1.84,1.13,1.84.78,0,1.29-.68,1.84-2.68.06-.19.13-.29.32-.29.16,0,.26.13.26.29l-.03.23c-.55,2.55-1.81,3.88-4.3,3.88-1.75,0-2.94-.97-2.94-3.1h-.23c-.81,2.42-2.78,3.39-5.27,3.39s-4.59-1.2-4.59-3.81c0-3.04,2.88-4.65,9.76-5.33v-3.13c0-3.59-1.58-4.52-3.39-4.52-1.94,0-3.04,1.23-3.04,1.91,0,.26.13.36.42.42.58.13,1.45.52,1.45,1.78,0,.84-.74,1.87-2.2,1.87-1.07,0-1.97-.81-1.97-2.1,0-2.52,3.1-4.65,6.37-4.65,4.01,0,6.4,2.17,6.4,6.95v7.08ZM9.76,56.46c-4.07.36-5.91,1.78-5.91,4.46,0,1.45.94,2.65,2.52,2.65,1.91,0,3.39-1.58,3.39-4.14v-2.97Z"/><path class="cls-4" d="M19.23,39.43c-.23,0-.32-.16-.32-.32s.1-.32.32-.32c2.84-.19,3.75-.45,5.4-1.2.13-.06.23-.1.32-.1.23,0,.36.16.36.39,0,.13,0,.32-.06,1.39-.06,1.13-.1,1.91-.1,3.65v18.84c0,2.23.1,2.33,2.39,2.33.26,0,.36.16.36.32s-.1.32-.36.32h-8.85c-.23,0-.36-.16-.36-.32s.13-.32.36-.32c2.26,0,2.39-.06,2.39-2.33v-19.29c0-2.94-.1-3.04-1.58-3.04h-.26Z"/><path class="cls-4" d="M59.37,61.76c0,2.2.16,2.2,2.13,2.33.23,0,.36.16.36.32s-.13.32-.36.32h-8.31c-.23,0-.36-.16-.36-.32s.13-.32.36-.32c1.94-.13,2.1-.13,2.1-2.33v-8.34c0-3.39-1.2-4.91-3.52-4.91-2.13,0-3.91,2.13-3.91,5.27v7.98c0,2.17.19,2.2,2.13,2.33.23,0,.36.16.36.32s-.13.32-.36.32h-8.31c-.23,0-.36-.16-.36-.32s.13-.32.36-.32c1.94-.13,2.1-.13,2.1-2.33v-8.34c0-3.39-1.2-4.91-3.52-4.91-2.13,0-3.91,2.13-3.91,5.27v7.98c0,2.1.06,2.2,2.39,2.33.26,0,.36.16.36.32s-.1.32-.36.32h-8.56c-.23,0-.36-.16-.36-.32s.13-.32.36-.32c1.94-.13,2.1-.19,2.1-2.33v-10.31c0-2.36-.06-2.71-1.26-2.71h-.55c-.23,0-.36-.16-.36-.32s.13-.32.36-.32c2.55,0,4.04-.1,5.17-.55.1-.03.19-.06.29-.06.19,0,.36.13.36.36,0,.13-.1.68-.19,1.1-.16.78-.29,2-.39,3.23h.19c.55-3.04,2.71-4.72,6.17-4.72,2.84,0,4.88,1.33,5.56,3.88.78-2.49,2.81-3.88,5.95-3.88,3.52,0,5.79,2.04,5.79,5.85v8.47Z"/><path class="cls-4" d="M77.92,61.47c0,1.62.48,1.84,1.13,1.84.78,0,1.29-.68,1.84-2.68.06-.19.13-.29.32-.29.16,0,.26.13.26.29l-.03.23c-.55,2.55-1.81,3.88-4.3,3.88-1.75,0-2.94-.97-2.94-3.1h-.23c-.81,2.42-2.78,3.39-5.27,3.39s-4.59-1.2-4.59-3.81c0-3.04,2.88-4.65,9.76-5.33v-3.13c0-3.59-1.58-4.52-3.39-4.52-1.94,0-3.04,1.23-3.04,1.91,0,.26.13.36.42.42.58.13,1.45.52,1.45,1.78,0,.84-.74,1.87-2.2,1.87-1.07,0-1.97-.81-1.97-2.1,0-2.52,3.1-4.65,6.37-4.65,4.01,0,6.4,2.17,6.4,6.95v7.08ZM73.88,56.46c-4.07.36-5.91,1.78-5.91,4.46,0,1.45.94,2.65,2.52,2.65,1.91,0,3.39-1.58,3.39-4.14v-2.97Z"/><path class="cls-4" d="M83.35,39.43c-.23,0-.32-.16-.32-.32s.1-.32.32-.32c2.84-.19,3.75-.45,5.4-1.2.13-.06.23-.1.32-.1.23,0,.36.16.36.39,0,.13,0,.32-.06,1.39-.06,1.13-.1,1.91-.1,3.65v18.84c0,2.23.1,2.33,2.39,2.33.26,0,.36.16.36.32s-.1.32-.36.32h-8.86c-.23,0-.36-.16-.36-.32s.13-.32.36-.32c2.26,0,2.39-.06,2.39-2.33v-19.29c0-2.94-.1-3.04-1.58-3.04h-.26Z"/><path class="cls-4" d="M110.82,56.27c0,5.3-4.56,8.79-8.6,8.79s-8.6-3.49-8.6-8.79,4.56-8.82,8.6-8.82,8.6,3.55,8.6,8.82ZM106.4,56.27c0-1.49-.13-3.91-.94-5.78-.55-1.2-1.58-2.39-3.23-2.39s-2.68,1.2-3.23,2.39c-.81,1.87-.94,4.3-.94,5.78s.13,3.88.94,5.75c.55,1.2,1.58,2.39,3.23,2.39s2.68-1.2,3.23-2.39c.81-1.87.94-4.27.94-5.75Z"/><path class="cls-4" d="M130.6,56.27c0,5.3-4.56,8.79-8.6,8.79s-8.6-3.49-8.6-8.79,4.56-8.82,8.6-8.82,8.6,3.55,8.6,8.82ZM126.17,56.27c0-1.49-.13-3.91-.94-5.78-.55-1.2-1.58-2.39-3.23-2.39s-2.68,1.2-3.23,2.39c-.81,1.87-.94,4.3-.94,5.78s.13,3.88.94,5.75c.55,1.2,1.58,2.39,3.23,2.39s2.68-1.2,3.23-2.39c.81-1.87.94-4.27.94-5.75Z"/><path class="cls-4" d="M143.08,52.32c.58-.94.84-1.68.84-2.23,0-.91-.65-1.26-1.68-1.36-.26-.03-.36-.16-.36-.36,0-.16.13-.29.36-.29h6.43c.23,0,.36.13.36.29s-.1.29-.32.32c-1.52.19-2.49.45-4.56,3.55l-2.1,3.13,3.78,5.72c1.52,2.33,1.94,2.84,3.56,2.97.23.03.32.16.32.32s-.1.32-.32.32h-9.02c-.19,0-.32-.13-.32-.32s.13-.29.32-.32c1.65-.13,2-.45,2-1.13,0-.55-.36-1.26-.97-2.2l-2.17-3.26-1.87,2.97c-.55.84-.81,1.58-.81,2.13,0,.97.61,1.36,2.17,1.49.26.03.36.16.36.32s-.1.32-.36.32h-7.11c-.23,0-.36-.13-.36-.32,0-.16.1-.29.32-.32,1.52-.19,2.36-.55,4.56-3.55l2.68-3.68-3.39-5.14c-1.52-2.33-2.04-2.84-3.55-2.97-.19,0-.32-.13-.32-.32s.13-.32.36-.32h8.69c.26,0,.36.16.36.32s-.1.29-.36.32c-1.33.1-1.87.26-1.87.87,0,.52.39,1.33,1.13,2.46l1.78,2.71,1.45-2.46Z"/></g><text class="cls-3" transform="translate(34.82 91)"><tspan x="0" y="0">enlighten </tspan><tspan class="cls-2" x="63.78" y="0">y</tspan><tspan x="70.98" y="0">our li</tspan><tspan class="cls-1" x="102.88" y="0">f</tspan><tspan x="107.53" y="0">e</tspan></text><line class="cls-5" x1="35.37" y1="73.97" x2="149.66" y2="73.97"/></svg>