<svg xmlns:dc="http://purl.org/dc/elements/1.1/" xmlns:cc="http://creativecommons.org/ns#" xmlns:rdf="http://www.w3.org/1999/02/22-rdf-syntax-ns#" xmlns:svg="http://www.w3.org/2000/svg" xmlns="http://www.w3.org/2000/svg" xmlns:sodipodi="http://sodipodi.sourceforge.net/DTD/sodipodi-0.dtd" xmlns:inkscape="http://www.inkscape.org/namespaces/inkscape" width="75.901199mm" height="76.173286mm" viewBox="0 0 75.901199 76.173286" version="1.1" id="svg8" inkscape:version="0.92.5 (2060ec1f9f, 2020-04-08)" sodipodi:docname="drawing.svg">
  <defs id="defs2"></defs>
  <sodipodi:namedview id="base" borderopacity="1.0" inkscape:pageopacity="0.0" inkscape:pageshadow="2" inkscape:zoom="0.98994949" inkscape:cx="247.21321" inkscape:cy="116.24034" inkscape:document-units="mm" inkscape:current-layer="layer1" showgrid="false" fit-margin-top="0" fit-margin-left="0" fit-margin-right="0" fit-margin-bottom="0" inkscape:window-width="1920" inkscape:window-height="1017" inkscape:window-x="1672" inkscape:window-y="-8" inkscape:window-maximized="1"></sodipodi:namedview>
  <metadata id="metadata5">
  <rdf:rdf>
    <cc:work rdf:about="">
    <dc:format>image/svg+xml</dc:format>
    <dc:type rdf:resource="http://purl.org/dc/dcmitype/StillImage"></dc:type>
    <dc:title></dc:title>
    </cc:work>
  </rdf:rdf>
  </metadata>
  <g inkscape:label="Layer 1" inkscape:groupmode="layer" id="layer1" transform="translate(-34.206843,-82.228907)">
  <path style="fill:#e10a19;fill-opacity:1;stroke-width:0.26458335" d="m 71.125253,158.16508 c -0.26902,-0.43529 1.42347,-3.63632 2.63529,-4.98415 2.44165,-2.7157 6.41943,-3.57367 9.52471,-2.0544 0.81705,0.39974 1.62682,0.95303 1.7995,1.22953 0.17268,0.2765 0.46391,0.50273 0.64719,0.50273 0.18328,0 0.33323,0.23812 0.33323,0.52916 0,0.76444 -0.37844,0.66062 -1.85953,-0.51011 -1.70243,-1.3457 -3.54293,-1.79687 -5.56291,-1.36366 -2.82738,0.60636 -4.70949,2.22003 -6.0579,5.1939 -0.73837,1.62842 -1.11888,2.00827 -1.45958,1.457 z m 5.15033,-1.30186 c 0,-1.90784 1.51719,-3.04498 3.86393,-2.89603 0.93858,0.0596 1.29545,0.19155 1.29545,0.4791 0,0.30527 -0.34871,0.39919 -1.51072,0.40691 -1.8686,0.0124 -2.85491,0.75613 -2.85491,2.15275 0,0.60576 -0.12365,0.87992 -0.39687,0.87992 -0.28432,0 -0.39688,-0.29002 -0.39688,-1.02265 z m -12.43053,0.44939 c 0.003,-0.19403 0.18284,-1.35923 0.40035,-2.58934 0.69547,-3.93317 -0.36947,-7.23658 -3.38895,-10.51232 -2.52615,-2.74055 -6.44998,-3.9206 -9.48083,-2.85126 -2.16682,0.7645 -3.8012,2.95238 -4.09914,5.48738 -0.11479,0.97666 -0.30027,1.5138 -0.52275,1.5138 -0.18965,0 -0.4048,-0.097 -0.47811,-0.21564 -0.26447,-0.42794 0.68181,-2.9556 1.6911,-4.51716 1.76918,-2.73726 4.0597,-3.95041 6.84239,-3.62397 4.68829,0.54998 8.93906,4.55798 10.35017,9.75905 0.41452,1.52785 0.22415,5.87718 -0.30475,6.96258 -0.38331,0.7866 -1.01734,1.1552 -1.00948,0.58688 z m 19.83887,-1.41111 c 0,-0.22049 0.23518,-0.39688 0.52916,-0.39688 0.29399,0 0.52917,0.17639 0.52917,0.39688 0,0.22048 -0.23518,0.39687 -0.52917,0.39687 -0.29398,0 -0.52916,-0.17639 -0.52916,-0.39687 z m -15.875,-0.80578 c 0,-0.86036 1.10319,-1.97235 1.95673,-1.97235 0.87611,0 1.11496,0.44425 0.36221,0.6737 -0.85243,0.25985 -1.52519,0.91443 -1.52519,1.48398 0,0.26848 -0.1786,0.48815 -0.39688,0.48815 -0.24883,0 -0.39687,-0.25121 -0.39687,-0.67348 z m 20.10833,-0.12027 c 0,-0.14552 0.11906,-0.26458 0.26458,-0.26458 0.14553,0 0.26459,0.11906 0.26459,0.26458 0,0.14553 -0.11906,0.26459 -0.26459,0.26459 -0.14552,0 -0.26458,-0.11906 -0.26458,-0.26459 z m -32.88764,-2.27923 c -1.65942,-0.50999 -3.72837,-2.48231 -4.12207,-3.92952 -0.61315,-2.25395 1.21481,-3.99638 3.92643,-3.74271 3.02567,0.28304 5.76482,2.43586 6.0239,4.73442 0.1146,1.01666 0.0315,1.28488 -0.62558,2.01819 -1.16001,1.29466 -2.95183,1.61138 -5.20268,0.91962 z m 3.65027,-1.01062 c 1.42812,-0.59671 1.57827,-2.16078 0.35653,-3.71396 -1.18535,-1.50693 -4.65547,-2.46275 -6.1277,-1.68783 -0.80841,0.42552 -0.9661,0.73735 -0.97074,1.91959 -0.003,0.86071 0.16951,1.19825 1.03575,2.0223 1.69904,1.61625 3.95225,2.19273 5.70616,1.4599 z m 30.24966,-0.0736 c -2.18882,-1.3579 -1.4009,-4.47077 1.11494,-4.40481 0.57017,0.0149 1.33684,0.22385 1.70369,0.46422 0.76213,0.49937 0.91328,1.10991 0.20398,0.82395 -0.97432,-0.3928 -2.44772,-0.46364 -2.84174,-0.13663 -0.21967,0.18231 -0.39941,0.6781 -0.39941,1.10175 0,0.59986 0.20488,0.89117 0.92604,1.31666 0.98068,0.57861 1.23879,1.29261 0.46302,1.28082 -0.25466,-0.004 -0.78139,-0.20455 -1.17052,-0.44596 z m -19.07718,-0.90341 c -0.43436,-0.16549 -0.95057,-0.70311 -1.26285,-1.31521 -0.47574,-0.93254 -0.49041,-1.10833 -0.14779,-1.77089 0.82954,-1.60414 2.89331,-1.94468 4.47485,-0.73838 0.78178,0.59629 0.97776,0.92214 0.97776,1.62566 0,1.78075 -2.11682,2.9323 -4.04197,2.19882 z m 2.49979,-1.19814 c 1.54854,-1.40142 -0.83123,-3.25505 -2.49689,-1.94485 -0.87471,0.68806 -0.90937,1.13055 -0.14437,1.84326 0.69947,0.65166 1.97905,0.70087 2.64126,0.10159 z m 4.1077,-2.5648 c -0.24632,-0.6419 0.43385,-1.32205 1.10809,-1.10806 0.85519,0.27143 0.66024,1.30562 -0.26637,1.41308 -0.42269,0.049 -0.7516,-0.0702 -0.84172,-0.30502 z m 15.54114,-1.06614 c -2.44083,-1.13657 -4.31375,-3.21262 -5.41203,-5.99899 -0.71986,-1.82629 -0.77446,-5.43919 -0.11262,-7.45124 1.8951,-5.76123 8.10417,-7.89317 12.91858,-4.43572 3.175787,2.28067 4.892157,6.7327 4.185147,10.85566 -0.55902,3.25994 -2.30548,5.71288 -4.963557,6.97142 -1.97903,0.93703 -4.67806,0.96104 -6.61552,0.0589 z m 6.45048,-1.11563 c 2.479747,-1.23571 3.988937,-3.75689 4.215807,-7.04271 0.28866,-4.18056 -1.68517,-7.94126 -5.067637,-9.65528 -1.94345,-0.98482 -4.58395,-0.96702 -6.44048,0.0434 -3.77422,2.05418 -5.22152,6.94283 -3.46239,11.69514 0.60553,1.63586 1.64757,3.00124 3.23341,4.23676 1.43962,1.1216 2.18935,1.35732 4.4096,1.38644 1.36684,0.0179 2.0257,-0.12262 3.11169,-0.66379 z m -3.94105,-2.91873 c -1.52146,-0.44364 -2.23257,-1.21036 -2.90989,-3.13745 -0.64298,-1.82939 -0.51707,-3.14522 0.46404,-4.84939 0.66916,-1.16232 1.96286,-2.16346 2.79799,-2.16524 0.7769,-0.002 0.50464,0.62606 -0.55464,1.27878 -1.39527,0.85975 -2.03201,2.15244 -1.99603,4.05228 0.0235,1.23979 0.16896,1.71558 0.76248,2.49373 0.99415,1.30338 2.26463,1.82315 3.47774,1.42279 1.12448,-0.37111 2.10037,-1.24481 2.46673,-2.20842 0.48201,-1.26777 0.33526,-3.55448 -0.30073,-4.68606 -0.60224,-1.07154 -0.49384,-1.59964 0.2341,-1.14047 0.97656,0.616 1.434087,2.00575 1.349347,4.09866 -0.0697,1.72135 -0.1866,2.14319 -0.826397,2.982 -1.40487,1.84186 -2.98891,2.43492 -4.96474,1.85879 z m -12.91405,4.02979 c -0.82051,-0.45478 -1.33092,-1.39713 -1.34266,-2.47893 -0.0121,-1.11844 1.50839,-2.893 2.23872,-2.61274 0.4239,0.16266 0.38424,0.26637 -0.35387,0.92535 -1.17522,1.04924 -1.35412,2.18929 -0.48061,3.0628 0.37345,0.37345 0.92795,0.67899 1.23222,0.67899 0.645,0 1.85208,-1.11302 1.85208,-1.70776 0,-0.2249 0.1786,-0.4089 0.39688,-0.4089 0.26189,0 0.39687,0.26197 0.39687,0.77023 0,1.61284 -2.33286,2.66152 -3.93963,1.77096 z m -11.41435,-2.09377 c -1.55221,-0.43528 -2.31353,-0.98503 -3.20754,-2.31619 -3.17826,-4.73231 2.27553,-12.16977 8.68014,-11.83731 1.21973,0.0633 1.56027,0.17677 1.62998,0.54306 0.0767,0.40283 -0.13727,0.46302 -1.64572,0.46302 -7.43041,0 -11.88323,9.64576 -5.56647,12.05815 4.7012,1.79541 10.80409,-3.17208 10.26254,-8.35327 -0.13998,-1.33926 -0.10068,-1.58822 0.25074,-1.58822 0.55907,0 0.81817,0.88474 0.77818,2.65724 -0.11847,5.25215 -6.16529,9.78031 -11.18185,8.37352 z m -27.77199,-0.24898 c 6.1e-4,-0.18191 0.29826,-0.91646 0.66146,-1.63235 0.87871,-1.73203 0.85938,-2.77937 -0.0673,-3.64364 -1.10654,-1.03205 -1.77934,-1.29159 -3.7838,-1.45964 -1.29461,-0.10854 -1.8386,-0.26021 -1.8386,-0.51265 0,-0.63898 3.34542,-0.53111 4.91917,0.15861 0.94738,0.41521 2.60348,2.12873 2.05739,2.12873 -0.11177,0 -0.0603,0.14287 0.11427,0.3175 0.17463,0.17462 0.31741,0.62111 0.3173,0.99219 -3.2e-4,0.98444 -1.48548,3.98197 -1.97294,3.98197 -0.22446,0 -0.40761,-0.14882 -0.407,-0.33072 z m 18.5369,-3.7148 c -1.19467,-0.60049 -0.96705,-0.97512 0.48778,-0.80281 1.08897,0.12897 1.36668,0.0782 1.50214,-0.27485 0.19969,-0.52039 0.90332,-0.58052 0.90332,-0.0772 0,0.93459 -1.85689,1.67578 -2.89324,1.15486 z m 11.05061,-0.0633 c -0.9723,-0.52803 -1.43652,-1.99229 -1.04545,-3.29758 0.35422,-1.1823 1.24653,-2.38315 1.77082,-2.38315 0.52444,0 0.47176,0.42334 -0.15881,1.27623 -1.31279,1.77564 -0.79438,3.87086 0.91522,3.69899 1.63153,-0.16402 2.7913,-2.21452 2.44824,-4.32855 -0.16593,-1.02253 0.1718,-1.20574 0.63326,-0.34351 0.42721,0.79826 0.1556,3.03763 -0.47106,3.88374 -0.6954,0.93893 -2.13764,1.90111 -2.82986,1.88792 -0.30591,-0.006 -0.87397,-0.18316 -1.26236,-0.39409 z m -21.38654,-2.50069 c 0,-0.33244 1.1989,-0.63841 1.7192,-0.43875 0.76815,0.29476 0.38624,0.69829 -0.66086,0.69829 -0.58209,0 -1.05834,-0.11679 -1.05834,-0.25954 z m 5.29167,-2.1025 c 0,-0.33838 1.31288,-1.34212 1.75547,-1.34212 0.56735,0 0.42488,0.44066 -0.33594,1.03913 -0.72983,0.57408 -1.41953,0.72129 -1.41953,0.30299 z m 49.923477,-1.54056 c -1.26692,-2.71765 -1.37513,-4.95496 -0.31808,-6.57662 0.52651,-0.80774 2.68662,-1.77134 3.25623,-1.45257 0.3758,0.21031 0.24792,0.33967 -0.76507,0.77389 -1.54094,0.66052 -2.35586,1.67421 -2.35175,2.92536 0.005,1.37453 0.68052,3.72033 1.32225,4.58832 0.303,0.40983 0.47891,0.86166 0.39089,1.00406 -0.3628,0.58703 -0.86482,0.17402 -1.53447,-1.26244 z m -60.374517,0.74212 c -3.38112,-1.72731 -3.27799,-6.0983 0.22781,-9.65553 3.72192,-3.77651 9.30317,-4.87051 12.07452,-2.36677 3.1897,2.8817 0.7761,8.6928 -4.74694,11.42892 -1.7312,0.85763 -2.24361,0.98532 -4.23333,1.0549 -1.86302,0.0651 -2.45106,-0.0165 -3.32206,-0.46152 z m 5.1775,-0.7007 c 2.04957,-0.60129 3.95098,-1.75459 5.33871,-3.23818 1.72019,-1.83902 2.15471,-2.79234 2.17043,-4.76184 0.0124,-1.55874 -0.0455,-1.72737 -0.83617,-2.43441 -2.37887,-2.1272 -6.75286,-1.43946 -10.44707,1.64264 -1.51808,1.26655 -2.85906,3.77854 -2.85762,5.35305 0.003,2.9855 2.95629,4.51701 6.63172,3.43874 z m 10.05525,-0.54012 c -0.60416,-0.76806 -0.71925,-2.1794 -0.25204,-3.09057 0.73544,-1.43429 3.08623,-3.32145 3.68019,-2.95436 0.45833,0.28326 0.27616,0.57352 -0.81185,1.29354 -1.22347,0.80965 -2.10391,2.09789 -2.10535,3.08051 -0.003,2.02601 2.62732,1.62656 4.3747,-0.66437 0.5179,-0.67901 0.81537,-0.87822 1.01432,-0.67927 0.45857,0.45858 -0.57216,2.03763 -1.90739,2.92205 -1.60114,1.06054 -3.20193,1.09762 -3.99258,0.0925 z m -24.88163,-1.0888 c 0.005,-0.25466 0.18322,-0.69414 0.39688,-0.97661 0.81483,-1.07731 0.17373,-2.7937 -1.04349,-2.7937 -0.5553,0 -0.41809,-0.62768 0.16182,-0.74021 0.2232,-0.0433 0.77888,0.23516 1.23485,0.61883 0.69098,0.58143 0.82903,0.88598 0.82903,1.82901 0,0.744 -0.18778,1.37014 -0.54837,1.82856 -0.63344,0.80529 -1.04279,0.89827 -1.03072,0.23412 z m 72.751997,-1.91823 c 0,-0.14552 0.18562,-0.26458 0.41249,-0.26458 0.22687,0 0.33891,0.11906 0.24897,0.26458 -0.0899,0.14552 -0.27556,0.26458 -0.41249,0.26458 -0.13693,0 -0.24897,-0.11906 -0.24897,-0.26458 z m -26.855207,-1.56805 c -0.86497,-0.36218 -1.54004,-1.26935 -1.33615,-1.79553 0.16317,-0.42111 0.24078,-0.39422 0.70899,0.24564 0.32146,0.43931 0.88407,0.78573 1.44787,0.8915 0.50975,0.0956 0.87812,0.30675 0.82373,0.47211 -0.12488,0.37968 -0.95732,0.47398 -1.64444,0.18628 z m -11.64166,-1.61857 c -3.91395,-0.59707 -8.36282,-3.82221 -9.91068,-7.18462 -0.95951,-2.08434 -1.22793,-5.23918 -0.44576,-5.23918 0.24251,0 0.41092,0.49501 0.51846,1.5239 0.40236,3.84954 1.94719,5.96433 6.26611,8.57793 2.38824,1.44525 6.85329,1.85846 9.49626,0.87881 4.15723,-1.54093 5.80686,-5.58049 3.88391,-9.51086 -0.76874,-1.57124 -2.91733,-3.8538 -4.50152,-4.78219 -2.67071,-1.56515 -6.7651,-2.33596 -9.14324,-1.72132 -2.40462,0.62149 -2.38125,0.61979 -2.38125,0.17334 0,-0.78499 1.78693,-1.30598 4.49791,-1.31138 4.24236,-0.008 7.25337,1.19507 10.07264,4.02612 3.68032,3.6957 4.37353,7.64155 1.94304,11.06008 -2.01669,2.83651 -5.94015,4.17383 -10.29588,3.50937 z m 14.25166,-1.62069 c -0.62908,-0.30462 -1.34019,-1.44548 -1.06962,-1.71605 0.0958,-0.0958 0.47862,0.15435 0.85073,0.55587 0.56959,0.61459 0.81776,0.70354 1.5695,0.56252 1.02165,-0.19166 1.46967,0.21429 0.69441,0.6292 -0.63533,0.34001 -1.29881,0.32978 -2.04502,-0.0315 z m 16.101997,-0.63165 c -0.554597,-0.38846 -0.820877,-1.18595 -0.3896,-1.16682 0.3418,0.0152 1.38906,0.98802 1.38906,1.29038 0,0.39879 -0.30808,0.3607 -0.99946,-0.12356 z m -63.185057,-0.51223 c -0.58213,-0.88844 -0.33327,-1.70994 0.90996,-3.0039 1.40462,-1.46192 4.53706,-2.39263 4.53706,-1.34804 0,0.13693 -0.26006,0.24896 -0.57792,0.24896 -0.8602,0 -2.78528,1.01006 -3.3898,1.77858 -0.62134,0.78991 -0.69566,1.8787 -0.14272,2.09089 0.21311,0.0818 1.17322,-0.11279 2.13357,-0.43238 0.96035,-0.31958 1.81273,-0.51443 1.89417,-0.43299 0.62779,0.62779 -1.85637,1.7584 -3.86352,1.7584 -0.84711,0 -1.15825,-0.13673 -1.5008,-0.65952 z M 107.761,123.30635 c -1.37362,-0.23177 -4.23159,-1.46581 -5.57898,-2.40895 -1.83155,-1.28203 -3.040027,-3.00931 -3.600487,-5.14619 -0.39884,-1.52065 -0.41211,-1.94965 -0.1097,-3.54406 0.61401,-3.2372 2.735547,-7.06566 5.147397,-9.28883 1.02151,-0.9416 2.02511,-1.44476 2.02511,-1.01531 0,0.0599 -0.64788,0.77241 -1.43973,1.58348 -3.1276,3.20348 -4.645687,6.36178 -4.645687,9.66507 0,1.21218 0.17927,2.56826 0.441107,3.33671 0.8913,2.61583 4.55596,5.19316 8.24425,5.79813 1.31419,0.21556 1.78293,0.40476 1.84868,0.7462 0.0702,0.36472 -0.0901,0.45013 -0.7912,0.4214 -0.48362,-0.0198 -1.17696,-0.0863 -1.54076,-0.14765 z m -16.316197,-1.08372 c -3.37227,-1.20511 -5.16489,-3.83737 -3.81206,-5.59758 0.41689,-0.54243 0.77632,-0.66504 2.21893,-0.7569 2.45979,-0.15662 4.13751,0.46249 5.91275,2.18195 1.62343,1.57241 1.8349,2.53897 0.81494,3.72475 -0.81668,0.94944 -3.15909,1.15372 -5.13456,0.44778 z m 4.1363,-1.0533 c 1.65832,-1.34283 -1.70693,-4.27433 -4.92256,-4.28808 -0.93702,-0.004 -1.54826,0.14684 -1.96613,0.48521 -0.56179,0.45492 -0.58031,0.55395 -0.25182,1.34701 0.87561,2.11389 5.56924,3.72819 7.14051,2.45586 z m -26.11191,-0.0505 c -2.96017,-1.34378 -4.3458,-4.51365 -2.9076,-6.65169 1.63647,-2.43282 5.48792,-2.3609 7.99817,0.14934 3.03412,3.03413 1.46661,7.03562 -2.74826,7.01561 -0.67345,-0.003 -1.72749,-0.23416 -2.34231,-0.51326 z m 4.41625,-0.93153 c 1.00003,-0.51714 1.48391,-1.91704 1.08276,-3.13253 -0.57114,-1.73057 -2.88411,-3.35437 -4.77803,-3.35437 -3.38165,0 -4.31161,3.10892 -1.67727,5.60723 0.41318,0.39184 1.04888,0.83078 1.41268,0.97541 0.99868,0.39706 3.10538,0.34612 3.95986,-0.0957 z m -39.6786,0.15891 c 0,-0.40953 0.2658,-0.61157 1.10014,-0.83623 1.47601,-0.39745 2.60402,-1.54749 2.60402,-2.65487 0,-0.66012 -0.24467,-1.08062 -1.07457,-1.84678 -1.14743,-1.0593 -1.03274,-1.58802 0.23065,-1.06337 0.99919,0.41493 1.90226,1.84092 1.90226,3.00376 0,1.58943 -1.77238,3.29355 -3.90261,3.7523 -0.74974,0.16146 -0.85989,0.11601 -0.85989,-0.35481 z m 11.34917,-1.1167 c -1.45763,-0.54139 -1.71276,-3.12414 -0.3955,-4.0037 0.95116,-0.63511 3.76503,0.11649 4.53116,1.21029 0.62252,0.88877 -0.008,1.1865 -0.77104,0.36376 -0.71736,-0.77404 -1.56676,-1.06789 -2.70943,-0.9373 -0.66909,0.0765 -0.7694,0.20578 -0.84209,1.08565 -0.0766,0.92743 -0.0138,1.02755 0.87821,1.40027 1.50511,0.62887 0.85623,1.45581 -0.69131,0.88103 z m 59.115287,-1.36192 c -1.80538,-1.85508 -2.29272,-2.87943 -2.29739,-4.82879 -0.004,-1.84818 0.83461,-3.94682 2.19935,-5.50117 1.02691,-1.16958 1.63642,-1.02904 0.72562,0.16731 -1.41109,1.85349 -1.88741,3.12899 -1.89564,5.07616 -0.007,1.73232 0.0584,1.94838 0.96544,3.175 0.53531,0.7239 1.34784,1.64063 1.80562,2.03719 0.7929,0.68685 0.87183,1.26336 0.17299,1.26336 -0.17829,0 -0.93248,-0.62507 -1.67599,-1.38906 z m -52.271027,-2.20011 c -0.8574,-0.46522 -1.52701,-1.64747 -1.5188,-2.68154 0.0109,-1.37761 1.51064,-2.60213 2.83296,-2.31314 1.64844,0.36026 2.17532,0.71717 2.72016,1.84267 0.51233,1.05832 0.5235,1.2089 0.15518,2.09043 -0.59871,1.4329 -2.57993,1.93492 -4.1895,1.06158 z m 2.64978,-0.79145 c 0.89916,-0.6298 0.80632,-2.0425 -0.18041,-2.74511 -0.91795,-0.65364 -1.55522,-0.69037 -2.34768,-0.13531 -1.27706,0.89449 -0.12063,3.16517 1.66819,3.27552 0.14953,0.009 0.53648,-0.16857 0.8599,-0.3951 z m -19.32186,-3.45934 c -0.25466,-0.075 -0.46302,-0.30615 -0.46302,-0.51376 0,-0.29 0.41805,-0.37748 1.80406,-0.37748 2.69502,0 4.28237,-0.57137 5.86213,-2.11011 1.63013,-1.5878 2.35025,-3.18453 2.56109,-5.6788 0.17384,-2.0565 -0.29597,-4.273971 -1.25501,-5.923591 -0.51821,-0.89135 -0.47762,-1.36875 0.11635,-1.36875 0.53246,0 1.73155,2.77275 2.0605,4.764651 0.56852,3.44251 -0.37478,6.61989 -2.62352,8.83693 -1.72587,1.70155 -3.2266,2.35402 -5.6061,2.43736 -1.0964,0.0384 -2.20182,0.008 -2.45648,-0.0665 z m 10.91406,-0.45868 c 0,-0.94936 0.96848,-2.02006 1.82719,-2.02006 1.09316,0 1.21028,0.32909 0.2299,0.64598 -0.64303,0.20785 -0.93174,0.5018 -1.11961,1.13996 -0.29296,0.99511 -0.93748,1.15606 -0.93748,0.23412 z m 37.56185,0.38171 c -1.17485,-0.23021 -1.57852,-0.47706 -1.57852,-0.9653 0,-0.30745 0.22508,-0.34404 1.12448,-0.18282 0.61847,0.11086 1.92582,0.18929 2.90523,0.17429 4.26119,-0.0653 8.67029,-3.8481 8.67029,-7.43878 0,-1.00587 -0.94455,-2.41474 -2.05291,-3.062061 -1.72046,-1.0048 -5.22913,-0.86093 -7.82317,0.320791 -2.53584,1.15521 -4.94058,4.21701 -4.94058,6.29052 0,0.60058 -0.12419,0.87409 -0.39688,0.87409 -0.40755,0 -0.48746,-0.33818 -0.40634,-1.71979 0.16505,-2.81114 3.7562,-6.158291 7.68891,-7.166501 3.61534,-0.92684 6.94522,0.0208 8.32082,2.368131 2.90291,4.95344 -4.65381,11.85113 -11.51133,10.50743 z m -24.81786,-3.47901 c -0.84017,-0.33338 -0.58554,-0.93028 0.34852,-0.81698 0.40876,0.0496 1.02327,-0.0597 1.36557,-0.24293 0.82035,-0.43904 1.12814,-0.0969 0.47618,0.52935 -0.67652,0.64983 -1.42984,0.83231 -2.19027,0.53056 z m -6.65857,-1.1561 c 0,-0.22687 0.11906,-0.41249 0.26458,-0.41249 0.14553,0 0.26459,0.11204 0.26459,0.24897 0,0.13693 -0.11906,0.32255 -0.26459,0.41249 -0.14552,0.0899 -0.26458,-0.0221 -0.26458,-0.24897 z m 32.80932,-0.61093 c 0.001,-0.658 0.92297,-2.08491 1.64003,-2.53934 0.90058,-0.57073 2.22067,-0.77772 2.84138,-0.44553 0.82739,0.44281 0.65277,0.80206 -0.38986,0.80206 -1.48655,0 -2.62308,0.612 -3.13332,1.68724 -0.48298,1.01781 -0.95987,1.26445 -0.95823,0.49557 z m -47.58083,-0.23751 c 0.0513,-0.26621 0.31102,-0.52596 0.57722,-0.57723 0.34954,-0.0673 0.45812,0.0413 0.3908,0.3908 -0.0513,0.26621 -0.31102,0.52596 -0.57722,0.57722 -0.34954,0.0673 -0.45811,-0.0413 -0.3908,-0.39079 z m 34.18055,-0.35261 c -0.85767,-0.35059 -1.41738,-1.32811 -1.41738,-2.47544 0,-1.25959 0.96838,-3.086001 1.63622,-3.086001 0.60038,0 0.59837,0.0545 -0.0487,1.322911 -1.16998,2.29337 -0.42306,3.80865 1.58136,3.20811 2.53118,-0.75836 3.86776,-4.4213 1.93468,-5.302071 -0.64261,-0.29279 -0.66054,-0.34576 -0.25447,-0.75182 0.40606,-0.40607 0.48814,-0.39853 1.16514,0.10692 1.49358,1.11512 1.38699,3.412051 -0.24458,5.270311 -1.2798,1.45761 -3.15919,2.19476 -4.35225,1.70708 z m -22.32236,-2.188 c -0.66276,-1.08702 -0.6684,-2.32216 -0.0164,-3.600121 0.65464,-1.28319 1.26454,-1.80896 1.65059,-1.42291 0.20481,0.20481 0.11898,0.52032 -0.30264,1.11243 -0.71814,1.008541 -1.001,2.753621 -0.53696,3.312751 0.38142,0.45958 1.65192,0.52627 2.39988,0.12598 0.91515,-0.48978 1.64211,-2.29869 1.44691,-3.600391 -0.10863,-0.72437 -0.072,-1.15327 0.0985,-1.15327 0.48844,0 0.88146,1.11413 0.7469,2.117321 -0.32755,2.44207 -1.81406,3.9681 -3.86535,3.9681 -0.95387,0 -1.16561,-0.11229 -1.62143,-0.85989 z m -10.14117,-0.66146 c -0.0666,-0.10914 0.13933,-1.03114 0.45766,-2.04888 0.38672,-1.236361 0.72905,-1.879371 1.03157,-1.937621 0.58874,-0.11339 0.57144,0.20703 -0.12848,2.380231 -0.51876,1.61068 -1.00655,2.18649 -1.36075,1.60627 z m 20.8597,-0.82301 c -3.17683,-1.962311 -3.06811,-6.335671 0.22948,-9.230991 0.93913,-0.82457 3.10773,-1.65382 4.32496,-1.65382 1.859,0 3.86828,1.87132 4.17006,3.88372 0.23799,1.58699 -0.45501,3.72522 -1.66576,5.13972 -1.79731,2.099751 -5.21415,3.000761 -7.05874,1.861371 z m 4.18368,-0.92513 c 2.78612,-1.164121 4.44555,-5.033101 3.10307,-7.234851 -1.80637,-2.96256 -6.76384,-1.64198 -8.19494,2.18297 -0.66223,1.76999 -0.67756,2.27776 -0.10517,3.48398 0.82639,1.741501 3.12317,2.434411 5.19704,1.567901 z m 34.67787,-0.55028 c -0.45427,-0.19771 -1.01982,-0.636261 -1.25677,-0.974551 -0.96611,-1.37932 -0.1609,-4.25814 1.29308,-4.62306 1.061757,-0.26649 1.070287,0.0526 0.0277,1.03584 -1.10597,1.04307 -1.26252,2.12592 -0.45202,3.12671 0.41205,0.50879 0.73098,0.6161 1.719787,0.57868 1.38539,-0.0524 1.70588,0.533461 0.53526,0.978531 -0.83928,0.3191 -0.8557,0.31802 -1.867057,-0.12215 z m -20.48734,-3.896461 c -2.75546,-1.36784 -5.44273,-3.86588 -4.82415,-4.48445 0.15651,-0.15651 0.78495,0.3163 1.68418,1.2671 0.78898,0.83423 1.49404,1.51157 1.5668,1.5052 0.0728,-0.006 0.84666,0.32638 1.71979,0.73944 0.87312,0.41306 1.74506,0.75112 1.93763,0.75123 0.40365,2.4e-4 0.31805,0.83613 -0.0999,0.97525 -0.15341,0.0511 -1.04638,-0.28813 -1.98438,-0.75377 z m -30.86293,-0.73978 c -0.93871,-0.5723 -1.62213,-1.69278 -1.72885,-2.83448 -0.10216,-1.09285 0.35898,-1.06257 0.741,0.0487 0.39281,1.14263 1.07872,1.95535 1.92255,2.27799 0.59014,0.22565 0.68288,0.77066 0.1604,0.94261 -0.13643,0.0449 -0.62922,-0.15075 -1.0951,-0.43478 z m 6.41049,-0.5282 c -0.23983,-0.38805 1.15085,-1.20838 1.4839,-0.87532 0.18801,0.188 0.0828,0.40671 -0.33704,0.70079 -0.70354,0.49278 -0.92897,0.52708 -1.14686,0.17453 z m 31.27285,-0.62904 c -0.98608,-0.33825 -2.29424,-0.96737 -2.90702,-1.39805 -1.37256,-0.96467 -2.93645,-2.99215 -3.33559,-4.32438 -0.38618,-1.28894 -0.34967,-3.59435 0.0756,-4.77265 0.39089,-1.08311 1.121,-1.27542 1.00452,-0.26459 -0.33364,2.89553 -0.34456,4.02067 -0.0477,4.92004 0.50262,1.52294 2.50198,3.50233 4.48958,4.44472 1.5623,0.74073 1.9621,0.8157 4.36563,0.81856 2.35464,0.003 2.82551,-0.0799 4.27843,-0.75115 0.89793,-0.41486 1.90095,-1.03993 2.22893,-1.38906 0.76287,-0.81204 1.36252,-0.83096 1.2501,-0.0395 -0.10661,0.75067 -2.17125,2.15952 -4.01335,2.73858 -2.31235,0.72689 -5.30026,0.73394 -7.38907,0.0174 z m -35.67032,-1.4832 c -0.75718,-0.75718 -0.82215,-0.9496 -0.69665,-2.06311 0.14618,-1.29688 0.67585,-1.92169 1.62907,-1.92169 0.49834,0 0.4836,0.0542 -0.18286,0.67217 -1.39301,1.29167 -0.6961,3.032 1.21416,3.032 0.68704,0 0.97135,0.11616 0.97135,0.39687 0,0.21828 -0.20835,0.3985 -0.46302,0.40049 -0.25466,0.002 -0.72716,0.0744 -1.05,0.16097 -0.43289,0.11605 -0.80621,-0.0619 -1.42205,-0.6777 z m 38.83567,-1.89554 c -2.67067,-0.41539 -4.71122,-2.52273 -4.78321,-4.93979 -0.0216,-0.72425 0.0878,-0.99206 0.43417,-1.06265 0.35297,-0.0719 0.46441,0.0832 0.46883,0.65264 0.0217,2.78503 2.92076,4.98675 5.65851,4.29737 0.67312,-0.16949 1.28838,-0.41258 1.36726,-0.5402 0.28253,-0.45715 0.67653,-0.22081 0.5936,0.35608 -0.12352,0.85917 -2.05618,1.49831 -3.73916,1.23655 z m -29.81518,-0.84874 c 0,-0.83593 3.01572,-3.09313 3.49381,-2.61505 0.1676,0.16761 -0.14431,0.5355 -0.8903,1.05005 -0.63157,0.43563 -1.37511,1.04404 -1.65233,1.35202 -0.57341,0.63705 -0.95118,0.72164 -0.95118,0.21298 z m -4.43427,-0.44318 c -0.49292,-0.78928 -0.3972,-2.05128 0.20094,-2.64942 0.55262,-0.55262 1.05833,-0.69453 1.05833,-0.29698 0,0.1277 -0.18873,0.38882 -0.4194,0.58026 -0.41108,0.34116 -0.40377,0.92628 0.0286,2.29641 0.24152,0.76527 -0.40189,0.81693 -0.86852,0.0697 z m 14.35614,-0.37074 c -0.90008,-0.39284 -2.54289,-2.11465 -3.16446,-3.31665 -0.22895,-0.44275 -0.48596,-1.31338 -0.57113,-1.93474 -0.12779,-0.93232 -0.0577,-1.21771 0.40131,-1.63307 0.30589,-0.27683 0.5667,-0.4551 0.57957,-0.39617 0.0129,0.0589 0.043,0.70247 0.067,1.43007 0.058,1.75936 1.10607,3.52761 2.72739,4.60153 0.6829,0.45234 1.39982,0.82243 1.59315,0.82243 0.6233,0 0.38884,-1.72739 -0.45121,-3.32436 -0.5306,-1.00868 -0.71379,-1.61495 -0.54038,-1.78836 0.38669,-0.38669 0.94573,0.17872 1.72716,1.74684 1.47466,2.95926 0.24262,4.93208 -2.36843,3.79248 z m 4.99876,-3.67115 c -0.6676,-0.52513 -1.67334,-2.33853 -1.68566,-3.0393 -0.012,-0.68264 0.49696,-0.28936 1.1984,0.92604 0.93175,1.61447 0.82193,1.52135 1.7944,1.52135 1.05547,0 1.13745,0.67556 0.11517,0.94896 -0.53797,0.14387 -0.90151,0.0526 -1.42231,-0.35705 z m -15.97896,-0.55172 c 0,-0.84121 3.76043,-1.71783 4.74875,-1.10702 0.62643,0.38715 0.25067,0.72366 -0.62469,0.55944 -0.61378,-0.11514 -1.35531,0.002 -2.3151,0.3673 -1.6689,0.63431 -1.80896,0.64827 -1.80896,0.18028 z" id="path4555" inkscape:connector-curvature="0"></path>
  </g>
</svg>